<svg version="1.2" xmlns="http://www.w3.org/2000/svg" viewBox="13 171 88 158" width="88" height="158">
	<title>27462632_7335738-svg</title>
	<style>
		.s0 { fill: #231f20 } 
	</style>
	<g id="OBJECTS">
		<path class="s0" d="m75.6 287.4q-0.2-12.1-0.3-24.2c-0.1-16.1 0-32.3 0.1-48.4 0.1-9 0-18.1-0.1-27.2 0-0.5-0.7-0.5-0.7 0-0.4 8.2-0.8 16.3-1 24.5q-0.1 3.5-0.1 7c-1.9-6.5-4.9-12.5-9.2-17.8-2.3-3-5.1-5.7-8.2-8-0.3-0.3-0.8 0.3-0.4 0.6 4.9 4.4 8.9 9.7 11.9 15.6 3 5.8 4.9 12.1 5.7 18.6-1.5-5-4.2-9.6-7.7-13.4-3.1-3.3-6.9-6-11.1-7.7-2-0.8-4.3-1.5-6.6-1.1-2 0.3-3.9 1.7-4.2 3.8-0.4 2.3 0.7 4.8 2.9 5.9 2.4 1.1 5.3 0.5 7.3-1.2 0.8-0.7-0.4-1.9-1.2-1.2-1.5 1.3-3.7 1.8-5.5 1-1.7-0.8-2.6-2.7-2.1-4.5 0.5-2 2.5-2.6 4.3-2.5 2 0 4 0.8 5.8 1.7 7.4 3.4 13.2 9.8 16.2 17.3 1 2.5 1.6 5.1 1.9 7.8q0 1.1 0 2.3 0 0 0 0c-1.1-3.1-2.8-6-5.3-8.3-4.1-3.9-9.9-5.9-15.5-5-2.6 0.4-5.3 1.5-7.1 3.5-2.1 2.2-2.8 5.4-2.7 8.3 0 2.8 1.3 5.3 3.5 7 2.1 1.5 4.8 2 7.3 1.4 2.8-0.8 5.2-2.9 6.3-5.6 1.2-3 0.8-6.3-0.8-9-0.3-0.5-1-0.3-1 0.2-0.1 1.6-1 3-2.4 3.8-1.4 0.7-3 0.4-4.2-0.6-1.2-0.9-1.8-2.5-1.5-4 0.4-1.4 1.5-2.7 3-3.1 0.2 0 0.3-0.2 0.4-0.4 3.3-0.5 6.7 0.3 9.7 1.8 0.5 0.5 1 1.1 1.4 1.7q0.8 1.4 1.2 2.9c0.6 2.2 0.4 4.6-0.2 6.9-1 3.8-2.9 8.2-6.8 9.8-0.7 0.3-0.4 1.5 0.4 1.2 3.4-1 5.4-4.4 6.7-7.5 1.5-3.6 2.3-7.9 0.8-11.6q-0.4-1-1-1.9 0.1 0.1 0.2 0.2c2.5 3.6 3.6 8 3.5 12.4-0.1 4.6-1.6 9.4-4.3 13.2-1.6 2.1-3.8 4-6.5 3.9-0.7-0.1-0.9 1.2-0.2 1.3q0.1 0 0.2 0 0 0 0 0 0 0 0 0c4.1 0.7 8.1-0.7 11.2-3.2 1.2-1 2.2-2.2 3-3.4-1.1 3.1-2.5 6.2-5.1 8.4-3.7 3.2-9.3 4.3-14 2.8-1.1-0.4-2.1-0.9-3-1.6-1.2-2.1-0.3-4.7 1.2-6.4 1.5-1.7 4.4-3.1 3.6-5.9-0.7-2.2-3.2-3.6-5.5-3-2.3 0.5-3.9 2.7-4.6 4.9-1.4 4.7 1.2 10 5.3 12.4 4.8 2.9 11.1 2.3 15.8-0.5 3.4-2 5.4-5.3 6.6-9-0.6 3.8-1.4 7.4-3.6 10.7-2.7 4-7 6.8-11.7 7.6-3.1 0.6-6.1 0.3-9.1-0.6-0.9-0.3-1.3 1.1-0.4 1.4 5.3 2 11.5 1.3 16.3-1.6 3.1-1.9 5.6-4.6 7.3-7.8-1.7 4-4.8 7.2-8.5 9.4-4.7 2.7-10.1 4.1-14.6 7.1-2.3 1.7-4.4 3.7-5.7 6.2-0.5 1 0.9 1.8 1.4 0.9 2.5-4.7 7.5-7.2 12.1-9.2 3.7-1.7 7.5-3.3 10.6-5.9q-0.9 0.7-1.8 1.4c-5.1 3.8-11.2 6.8-14.3 12.8-2.3 4.6-2 11.1 2.4 14.4 5 3.7 12.4 1.1 15.4-3.9 1.6-2.8 1.8-6.1 0.2-8.9-1.5-2.6-4.5-4.5-7.6-4.1-0.4 0.1-0.7 0.5-0.5 0.9 1.6 2.6 0.7 6.4-2 8-2.4 1.4-5.7 0.7-7.6-1.3 0.3-2 1-4 2-5.6 1.5-2.4 3.7-4.4 5.9-6.1 2.6-1.9 5.3-3.5 7.8-5.5 3.1-2.7 5.4-6.2 6.5-10q0 0.1 0 0.3c-0.5 3.5-2.6 6.6-3.8 9.9-1.1 3-1.3 6.8 1.1 9.2 0.6 0.6 1.5-0.3 1-1-2.1-2.5-1.5-6.1-0.4-8.9 0.7-1.7 1.5-3.4 2.1-5.1q0 7.9 0.2 15.7c0.1 9 0.2 18.1 0.6 27.1 0 1.2 1.7 1.2 1.7 0 0-8.1-0.2-16.2-0.3-24.4zm-18.8-54.1q0.8-0.6 1.4-1.5c-0.6 3-3.2 5.6-6.5 5.5-0.6 0-0.6 1.1 0 1.1 3.7-0.1 7.1-3.3 7.3-6.9 0.4 1.5 0.4 3.2 0 4.8-0.7 2.3-2.5 4.1-4.7 5-2.1 0.8-4.4 0.7-6.3-0.4-2-1.2-3.4-3.2-3.6-5.5-0.2-2.5 0.3-5.5 2-7.6 0.6-0.7 1.3-1.2 2.1-1.7-1.2 2-1.6 4.5-1 6.7 0 0.3 0.5 0.3 0.5 0-0.2-1.5 0.1-3 0.6-4.4-0.1 0.9-0.1 1.8 0.3 2.7 1.3 2.9 5.2 4.2 7.9 2.2zm-8.2 26.8c-1.5-1.8-2.4-4.1-2.3-6.6 0.1-2.1 1.1-4.3 3-5.3 1.7-0.9 4.2 0 4.6 2 0.3 1.3-0.8 2.2-1.6 3-1 0.8-1.8 1.6-2.5 2.7-0.8 1.2-1.3 2.7-1.2 4.2zm10.3 37.9c3-0.4 5.6-2.9 6.4-5.9 0-0.3-0.4-0.4-0.5-0.1-0.9 2.7-3.3 4.7-6.1 4.9-2.4 0.3-4.8-0.8-6.3-2.6 1.5 0.7 3.1 1 4.7 0.7 3-0.5 5.1-3 5.5-5.8 0.2-1.2 0.1-2.4-0.3-3.5 0.4 0.3 0.7 0.6 1.1 1q0.7 0.8 1 1.8c0 0.4 0.5 0.2 0.5-0.1-0.2-0.8-0.4-1.6-0.8-2.2q-0.2-0.4-0.5-0.7c1.7 0.5 3.2 1.7 4.2 3.3 1.4 2.3 1.3 5 0 7.3-1.2 2.3-3.4 4-5.9 4.8-2.7 0.8-6 0.5-8.1-1.5-1.4-1.2-2.2-2.8-2.5-4.5 1.8 2.3 4.7 3.5 7.6 3.1zm14.4-50.6q-0.2 0.9-0.6 1.7c-1.2 3.1-3.6 5.7-6.6 7.2 2.9-2.7 4.9-6.4 5.8-10.2 0.1-0.3-0.3-0.4-0.3-0.1-1 3.6-3.3 6.6-6.1 8.9 1.4-1.9 2.5-4 3.3-5.9 1.8-4.7 2.2-10 1-14.9q-0.4-1.8-1.2-3.5c2.2 2.6 3.8 5.7 4.7 9q0 3.9 0 7.8z"/>
	</g>
</svg>