<svg version="1.2" xmlns="http://www.w3.org/2000/svg" viewBox="130 190 240 150" width="240" height="150">
	<title>27462632_7335738-svg</title>
	<style>
		.s0 { fill: #231f20 } 
	</style>
	<g id="OBJECTS">
		<path class="s0" d="m250 283.3c-54.9 0-99.4 0.9-99.4 2 0 0.4 6.9 0.8 18.7 1.1q-0.8 0.7-1.3 1.6c-1.1 1.5-1.5 3.4-1.5 5.3 0 0.3 0.4 0.2 0.5 0 0.1-1.8 1-3.3 2.1-4.6q1-1.3 2.5-2.2 0.8 0 1.7 0c-2.5 1.8-4 4.8-3.6 7.9 0.2 1.8 1 3.8 2.5 5 0.6 0.4 1.4-0.3 0.9-0.9-2.7-2.8-2.6-7.1 0.1-9.9 0.9-0.9 1.9-1.6 3-2q3.6 0.1 7.7 0.2c1.5 0.7 2.7 2.1 3.2 3.6 0.6 2 0.2 4.2-0.9 5.9-1.1 1.5-3 2.6-4.9 2.5-1.8-0.1-3.6-1.3-4-3.1-0.3-1-0.2-2.1 0.3-3 0.6-1 1.7-1.8 2.9-1.5 0.4 0.1 0.7-0.5 0.3-0.7-2.4-1.4-4.8 1.3-5.1 3.6-0.4 2.6 1 5 3.4 6 1.1 0.5 2.2 0.6 3.3 0.5-1.6 1-3.4 1.6-5.2 2-4.1 0.7-8.5-0.4-11.8-3-0.6-0.5-1.5 0.4-0.8 0.9 5 4 12.2 4.8 17.7 1.5-2.3 3.9-3 8.6-1.5 13 1.2 3.6 3.6 6.7 6.7 8.7 3.3 2.2 7.9 3.2 11.7 1.9 3.9-1.4 6.9-5 7-9.1 0-0.4-0.4-0.6-0.8-0.5-4.2 2.4-9.7 3.5-14.3 1.4-3.9-1.9-6.8-5.8-7.1-10.2-0.2-2.4 0.3-4.8 1.5-6.9q-0.2 1-0.1 2c0.4 3.9 3.6 6.9 7.5 6.9 4.5-0.1 8-4.1 7.6-8.6 0-0.4-0.6-0.8-1-0.4-1.4 1.8-4.5 2.3-6.1 0.5-1.3-1.6-0.9-4.5 1-5.4q0.1-0.1 0.2-0.3c2.9 0 5.8 1.2 8.2 2.7 1.8 1.2 3.6 2.6 5.3 4q1 0.8 2.1 1.6c0.8 1 1.7 1.9 2.8 2.5 4.8 2.9 11 1 15.1-2.2 1.8-1.4 3.4-3.1 4.8-4.9q-0.3 0.8-0.6 1.7c-0.1 0-0.3 0.1-0.3 0.3q0 0.3 0 0.6-0.4 1-0.9 2c-1.1 2.3-2.6 4.3-4.5 6-3.8 3.2-8.9 4.7-13.8 3.9-2.9-0.5-5.6-1.7-7.9-3.6-0.6-0.5-1.6 0.4-0.9 0.9 4.2 3.6 10 5.2 15.5 4.1 4.9-1 9.4-4.3 11.8-8.8-2 7.6-7.9 14-15.6 16.1-2.6 0.7-5.3 0.9-8 0.7-0.7-0.1-0.7 1.1 0 1.2 5 0.6 10.3-0.7 14.6-3.3 4.3-2.6 7.5-6.7 9.2-11.4q0.6-1.8 0.9-3.7 0.1 0.7 0.2 1.4c0.5 2.7 1.9 5.2 3.9 7.1 0.6 0.6 1.6-0.4 1-1-1.8-1.8-2.9-4-3.5-6.4q-0.4-1.6-0.4-3.3 0.2 1.6 1.1 3c2.1 3.8 6.1 5.9 9.3 8.8 1.5 1.4 2.8 3.1 3.3 5.1 0.6 2.2 0.1 4.6-1.1 6.5q-0.6 0.9-1.4 1.6-0.7 0.5-1.6 0.6c-1.2 0.2-2.6-0.1-3.4-1.2-0.7-1-0.7-2.3 0-3.2 0.3-0.5-0.3-0.9-0.7-0.6-0.8 0.9-1 2.2-0.7 3.3 0.3 1.3 1.2 2.3 2.4 2.7q0.2 0.1 0.4 0.2-0.3 0-0.7 0.1-1.3 0.1-2.5-0.2-0.1-0.1-0.2-0.3c-1.4-1-2.2-2.7-1.7-4.5 0.4-1.6 1.9-3 3.6-3.1 0.3 0 0.6-0.3 0.6-0.6-0.1-2.7-3-4.4-5.5-3.9-2.7 0.7-4.4 3.5-4.2 6.2 0.5 5.8 6.9 9.1 12.1 7.5 5.1-1.6 7.9-7.7 5.9-12.6-1.9-4.5-6.5-6.9-9.9-10.1-2.1-1.9-3.7-4.2-3.9-7.1-0.1-1.8 0.1-3.6 0.7-5.3 0 1.5 0.4 2.9 1 4.3 2 3.9 6.9 6.1 11 4.2 1-0.5 1.9-1.2 2.5-2.1q0.5 0.7 1.2 1.3c3.7 2.8 8.8 1.4 11.5-2.1 1.2-1.6 1.8-3.5 1.8-5.5 0.4 1.3 0.7 2.6 0.7 4 0.1 2.7-0.9 5.1-2.7 7.1-3.2 3.5-7.8 5.7-10.3 9.8-1.4 2.2-1.8 4.8-1.1 7.3 0.6 2.5 2.2 4.7 4.4 6 4.7 2.7 11.4 0.6 13.4-4.6 1.1-2.9 0.2-6.5-2.7-7.9-2.7-1.2-6.4 0.3-6.5 3.5 0 0.3 0.3 0.6 0.6 0.6 1.7 0.1 3.2 1.5 3.6 3.1 0.5 1.8-0.3 3.5-1.7 4.5q-0.1 0.2-0.2 0.3c-1 0.2-2.2 0.2-3.2 0 1.2-0.3 2.2-1.1 2.7-2.3 0.5-1.3 0.3-2.8-0.6-3.8-0.4-0.3-1 0.1-0.7 0.6 0.7 0.9 0.7 2.2 0 3.2-0.8 1.1-2.2 1.4-3.4 1.2q-0.9-0.1-1.7-0.6-0.1-0.2-0.3-0.3c-1.6-1.6-2.4-3.9-2.4-6.2 0.1-2.1 1.1-4 2.5-5.6 2.9-3.2 7-5.1 9.6-8.7 1-1.3 1.6-2.8 1.9-4.3 0 1.1-0.1 2.3-0.4 3.4-0.6 2.4-1.8 4.6-3.5 6.4-0.6 0.6 0.4 1.6 1 1 2-1.9 3.4-4.4 3.9-7.1q0.1-0.7 0.2-1.4c0.5 3.4 1.9 6.7 4 9.5 3 4 7.3 6.8 12.2 8.2 2.7 0.7 5.6 1 8.5 0.7 0.7-0.1 0.7-1.3 0-1.2-4.8 0.4-9.6-0.7-13.7-3.2-4.1-2.5-7.2-6.4-9-10.8q-0.5-1.4-0.9-2.8c1 1.9 2.4 3.5 4 4.9 4.2 3.5 9.7 5 15 3.9 3.1-0.6 5.9-2 8.3-4.1 0.7-0.5-0.3-1.4-0.9-0.9-4 3.3-9.4 4.6-14.4 3.4-4.9-1.1-8.9-4.4-11.3-8.7q-0.8-1.5-1.4-3 0-0.3 0-0.6c0-0.2-0.2-0.3-0.3-0.3q-0.3-0.8-0.6-1.7c1 1.3 2.1 2.5 3.3 3.6 3.9 3.6 9.7 6.2 14.9 4.3 1.8-0.6 3.3-1.8 4.4-3.2q0.8-0.6 1.5-1.2c1.6-1.3 3.2-2.5 4.8-3.7 2.8-1.9 6-3.5 9.4-3.4q0.1 0.1 0.2 0.2c1.9 0.9 2.4 3.8 1 5.4-1.6 1.8-4.7 1.3-6.1-0.5-0.4-0.4-1 0-1 0.5-0.4 3.8 2.2 7.5 6 8.3 3.9 0.8 7.7-1.4 8.8-5.2 0.4-1.2 0.4-2.5 0.1-3.6 2.2 3.9 2.2 8.8-0.3 12.6-2.3 3.7-6.7 5.9-11 5.7-2.9-0.1-6-1.1-8.5-2.5-0.4-0.1-0.8 0.1-0.8 0.5 0.1 3.6 2.4 6.9 5.6 8.5 3.8 1.9 8.3 1.3 11.9-0.6 6.7-3.5 10.3-11.7 8-19q-0.6-1.8-1.6-3.4c3.7 2.1 8.2 2.7 12.5 1.3 1.9-0.6 3.7-1.5 5.2-2.8 0.7-0.5-0.2-1.3-0.8-0.9-3.3 2.6-7.7 3.7-11.8 3-1.8-0.4-3.6-1-5.2-1.9 0.8 0 1.6 0 2.4-0.2 2.4-0.7 4.4-2.9 4.4-5.4 0-1.4-0.4-2.7-1.3-3.7-1-1.1-2.6-1.6-3.9-0.9-0.4 0.2-0.1 0.8 0.3 0.7 2.2-0.6 3.5 2.1 3.4 3.9-0.2 1.8-1.7 3.2-3.5 3.6-4.2 1-7.5-3.7-6.7-7.5 0.4-1.9 1.7-3.5 3.4-4.4q4.1-0.1 7.7-0.2c1.1 0.5 2.1 1.1 3 2 2.7 2.8 2.8 7.1 0.1 9.9-0.5 0.6 0.3 1.3 0.9 0.9 2.7-2.2 3.2-6.3 1.9-9.3-0.7-1.5-1.8-2.6-3-3.5q0.9-0.1 1.7-0.1 1.4 0.9 2.5 2.2c1.1 1.3 2 2.8 2.1 4.6 0.1 0.2 0.5 0.3 0.5 0 0-1.9-0.4-3.8-1.5-5.3q-0.6-0.9-1.3-1.6c11.8-0.3 18.7-0.7 18.7-1.1 0-1.1-44.5-2-99.4-2zm68 12q0.1 0.1 0.2 0.1 0.2 0.2 0.4 0.2 0.1 0 0.3-0.1 0.1 0 0.2-0.1 0.1 0 0.1-0.1 0.2-0.1 0.3-0.2 0.1-0.1 0.1-0.2 0.1-0.1 0.1-0.3 0-0.1 0-0.2 0-0.1-0.1-0.2 0-0.2-0.2-0.3-0.1-0.1-0.2-0.2l-0.2-0.1q-0.1 0-0.2 0-0.1 0-0.3 0l-0.2 0.1q-0.2 0.1-0.3 0.3 0 0-0.1 0.2 0 0 0 0 0 0-0.1 0.1-0.1 0.2-0.1 0.4 0 0.2 0.1 0.3 0.1 0.2 0.2 0.3zm1.2 0q0 0 0 0 0 0 0 0 0 0 0 0zm-1.2-1.2q0 0 0 0 0 0 0 0 0 0 0 0zm-133.6-2.5c0-0.1-0.3-0.1-0.3-0.1q0 0 0 0 0 0 0 0c0 0-0.2 0-0.2 0.1q0 0 0 0 0 0-0.1 0c0 0-0.2 0-0.2 0q0 0 0 0 0 0.1 0 0.1 0 0 0 0c0 0-0.2 0.1-0.2 0.1q0 0 0 0c0 0-0.1 0.1 0 0.1 0 0-0.1 0.1-0.1 0.1q0 0 0 0c0 0-0.1 0.2-0.1 0.2q0 0 0 0 0 0 0 0c0 0 0 0.3 0 0.3q0 0 0 0 0 0.2 0.1 0.4 0.1 0.2 0.3 0.4 0.1 0 0.2 0.1 0.3 0 0.5 0 0.2-0.1 0.3-0.2 0.1 0 0.1-0.1 0.1-0.1 0.2-0.2 0 0 0 0c0 0 0.1-0.2 0.1-0.2q0 0 0 0 0-0.1 0-0.2 0-0.1 0-0.1 0 0 0 0 0-0.1 0-0.2 0 0 0 0 0-0.1-0.1-0.2 0-0.1-0.1-0.1 0 0 0-0.1 0 0 0 0-0.1-0.1-0.2-0.2c0 0-0.2 0-0.2 0zm-1.2-2.8q-0.1-0.1-0.2-0.2 0-0.1-0.1-0.1-0.1-0.1-0.3-0.1l-0.1 0.1q-0.1 0-0.2 0.1-0.1 0.1-0.1 0.1-0.1 0.1-0.1 0.3 0 0.1 0 0.2 0 0.1 0 0.2 0.1 0.1 0.1 0.2 0.1 0 0.2 0.1 0.1 0 0.2 0 0.1 0 0.2 0 0.1 0 0.3-0.1 0-0.1 0-0.2 0.1-0.1 0.1-0.2 0-0.1 0-0.2 0-0.1 0-0.2zm-1.4 5q-0.1-0.1-0.2-0.1-0.1-0.1-0.2-0.1-0.2 0-0.3 0-0.1 0-0.2 0.1-0.2 0-0.3 0.2-0.1 0.1-0.2 0.2l-0.1 0.2q0 0.1 0 0.2 0 0.1 0 0.3l0.1 0.2q0.1 0.2 0.3 0.3 0 0 0.2 0.1 0 0 0 0 0 0 0.1 0.1 0.2 0.1 0.4 0.1 0.2 0 0.3-0.1 0.2-0.1 0.3-0.2l0.1-0.2q0.2-0.2 0.2-0.4 0-0.1-0.1-0.3 0-0.1-0.1-0.2l-0.1-0.1q-0.1-0.2-0.2-0.3zm-1 1.5q0 0 0 0 0 0 0 0zm1.3-1.2q-0.1 0-0.1 0 0 0 0 0 0.1 0 0.1 0zm129.8 25.8c1.5-0.8 2.7-2.2 3.5-3.6 0.9-1.6 1.6-3.4 2.1-5.2 0.5-2.3 0.6-4.8-0.1-7 1.2 3.2 1.5 6.7 0.4 10.1-2.1 6.5-8.9 11.8-16 10-2.5-0.6-4.7-2.2-6-4.3 2.1 1.8 5.1 2.8 7.8 2.5 0.4 0 0.4-0.6 0-0.6-1.7 0.2-3.5-0.2-5.1-1-1.4-0.7-2.5-1.7-3.5-3q0-0.2 0-0.4c2.2 1.1 4.5 2.1 7.1 2.4 2.5 0.3 5.1-0.1 7.4-1.2 3.4-1.7 6-4.7 7.1-8.2q-0.1 0.3-0.2 0.5c-0.8 3-2.3 6.5-5 8.1-0.6 0.3-0.1 1.2 0.5 0.9zm-3.6 1.1c-0.7 0-0.7 1 0 1 0.6 0 0.6-1 0-1zm6.9-27.9h0.1q0 0 0 0 0.2 0.2 0.4 0.3 0.2 0 0.4 0 0.1 0 0.3-0.1 0.2-0.2 0.3-0.4 0.2-0.2 0.2-0.4 0 0 0 0c0 0-0.1-0.3-0.1-0.3q0 0 0 0 0 0 0 0c0 0-0.1-0.2-0.1-0.2q0 0 0 0 0 0 0 0c0 0-0.1-0.2-0.1-0.2q0 0 0 0 0 0 0 0c0 0-0.2-0.1-0.2-0.1q0 0 0 0 0 0 0-0.1 0 0 0 0c0 0-0.2 0-0.2 0q0 0 0 0 0 0-0.1 0c0-0.1-0.2-0.1-0.2-0.1q0 0 0 0 0 0 0 0c0 0-0.2 0-0.1 0q-0.1 0-0.3 0.1 0 0-0.1 0-0.1 0.1-0.2 0.2 0 0 0 0 0 0 0 0 0 0 0 0.1 0 0-0.1 0.1 0 0 0 0.1 0 0 0 0-0.1 0-0.1 0.1 0 0 0 0c0 0 0 0.2 0 0.2q0 0 0 0c0 0.1 0 0.2 0 0.3q0 0.1 0.1 0.2 0.1 0.1 0.1 0.2zm1.9-3.4q0.1 0 0.3 0 0 0 0.1 0 0.2 0 0.3-0.1 0-0.1 0.1-0.2 0-0.1 0-0.2 0-0.1 0-0.2 0-0.1 0-0.2-0.1-0.1-0.1-0.2-0.1-0.1-0.2-0.1-0.1-0.1-0.2-0.1l-0.2 0.1q-0.1 0-0.2 0.1-0.1 0.1-0.1 0.1-0.1 0.2-0.1 0.3 0 0.1 0 0.2 0 0.1 0 0.2 0.1 0.1 0.2 0.2 0 0 0.1 0.1zm-132.4 23.6c2.6 4.2 7.3 6.8 12.2 6.5 3-0.1 5.6-1.1 8.2-2.4q-0.1 0.2-0.1 0.4c-0.9 1.3-2.1 2.3-3.5 3-1.6 0.8-3.4 1.2-5.1 1-0.4 0-0.4 0.6 0 0.6 2.8 0.3 5.7-0.7 7.8-2.5-1 1.7-2.7 3.2-4.6 3.9-3.5 1.4-7.5 0.8-10.7-1.1-5.8-3.4-8.7-10.6-6.8-17.1q0.3-0.9 0.6-1.7c-0.8 2.3-0.7 4.9-0.2 7.2 0.5 1.8 1.2 3.6 2.1 5.2 0.9 1.4 2 2.8 3.5 3.6 0.6 0.2 1.2-0.6 0.6-0.9-2.8-1.6-4.3-5.1-5.1-8.1q0-0.1-0.1-0.2 0.5 1.4 1.2 2.6zm50.2 13.6c-1-1.8-0.6-4.3 0-6.2 0.2-0.3-0.4-0.4-0.5-0.1-0.6 1.5-1.1 3.2-1 4.9 0.1 1 0.5 1.9 1 2.7q-0.2-0.1-0.3-0.2c-2.1-2-3.1-5.6-1-7.9 0.9-1.1 2.2-1.6 3.6-1.2 1 0.3 1.8 1.1 2.2 2.1-1.8 0.5-3.3 1.9-3.9 3.7-0.2 0.7-0.2 1.5-0.1 2.2zm26.2-5.9c0.8-2.1 3.3-2.9 5.2-1.6 2.3 1.8 2.2 5 0.7 7.2q-0.5 0.9-1.4 1.6c0.6-0.8 0.9-1.7 1-2.7 0.1-1.7-0.4-3.4-1-4.9-0.1-0.3-0.6-0.2-0.5 0.1 0.6 1.9 1 4.4 0.1 6.2 0.1-0.7 0-1.5-0.2-2.2-0.5-1.8-2.1-3.2-3.9-3.7zm48.6-0.7c-0.5 0-0.5 0.8 0 0.8 0.5 0 0.5-0.8 0-0.8zm1.6-30c-0.6 1.7-0.6 3.6 0 5.3q-0.6-0.5-1.2-0.8c-3.9-2-8.4-1-12 1-2.3 1.2-4.2 2.8-6.1 4.5q-0.5 0.4-1 0.9c0.8-2 0.9-4.2-0.1-6.2-1-2.3-3.1-4-5.6-4.4-2.4-0.4-4.9 0.4-6.3 2.4-1.4 2-1.6 4.9 0.1 6.9 1.5 1.8 4.4 2.4 6.4 1.1 0.5-0.3 0.5-1 0-1.2-1.4-0.8-2.1-2.7-1.5-4.3 0.6-1.5 2.4-2.6 4.1-2.2 0.9 0.8 1.5 1.8 1.9 3 1.2 4.2-2.3 8.2-6.2 9.2-4.8 1.1-9.5-1.3-12.8-4.6-1.8-1.7-3.3-3.7-4.8-5.6q0-0.1-0.1-0.2-1.1-1.4-2.1-2.9-0.6-1.6-1.6-3-0.7-1.1-1.7-1.9 2.8 0 5.5 0 0.3 0.4 0.5 0.8c0.7 1.2 1.4 2.5 2.1 3.8 1.3 2.3 2.9 4.8 5.2 6.3 0.8 0.5 1.4-0.7 0.7-1.2-2.3-1.8-3.8-4.2-5.3-6.6q-1-1.6-2-3.2 1.2 0 2.3 0c0.4 1.1 0.8 2 1.7 2.8 0.5 0.5 1.1 0.9 1.8 1.3 0.6 0.3 1.4 0.9 2.2 0.8 0.5 0 0.8-0.6 0.4-0.9-1.3-1.4-0.5-3.8 1.5-3.9q0.1 0 0.2-0.1 4.8 0 9.4-0.1c3 1.4 5.4 4.3 6 7.6 0.1 0.6 1 0.7 1.2 0.2 1.2-2.1 3.1-3.8 5.4-4.7 2.6-0.9 5.5-0.8 8 0.4 0.7 0.3 1.3-0.7 0.6-1-4.9-2.5-10.9-0.8-14.2 3.3-0.8-2.4-2.5-4.4-4.6-5.8 8.8-0.1 16.9-0.2 24.2-0.3-1 1-1.8 2.1-2.2 3.5zm-75.2 1.8q-1.1 1.5-2.2 3-0.1 0.1-0.1 0.2 0 0 0 0c-1.1 1.5-2.3 2.9-3.5 4.3-3.2 3.5-7.4 6.4-12.3 6.1-4.2-0.2-8.3-3.4-8.2-7.9 0-1.7 0.9-3.3 2.1-4.5 1.7-0.4 3.5 0.7 4.1 2.2 0.6 1.6-0.1 3.5-1.5 4.3-0.5 0.3-0.4 0.9 0 1.2 1.8 1.2 4.2 0.8 5.9-0.6 1.7-1.4 2.1-3.9 1.4-6-0.9-2.2-2.9-3.7-5.3-3.9-2.5-0.2-4.9 0.9-6.5 2.9-1.5 1.9-2 4.5-1.3 6.9q0.1 0.4 0.2 0.8-0.1-0.1-0.2-0.2c-1.7-1.5-3.3-3-5.2-4.2-3.5-2.3-8-3.9-12.2-2.5q-1.4 0.5-2.6 1.4c0.5-1.3 0.6-2.8 0.3-4.3-0.3-1.7-1.2-3.3-2.4-4.5 7.2 0.1 15.3 0.2 24.1 0.3-2.1 1.4-3.8 3.5-4.5 5.9-3.4-4.2-9.3-5.9-14.3-3.4-0.6 0.3-0.1 1.3 0.6 1 2.5-1.2 5.4-1.3 8-0.4 2.3 0.9 4.2 2.6 5.4 4.7 0.3 0.5 1.1 0.4 1.2-0.1 0.6-3.4 3-6.3 6.1-7.7q4.5 0.1 9.3 0.1 0.1 0.1 0.3 0.1c1.9 0.1 2.7 2.5 1.4 3.9-0.3 0.3 0 0.9 0.4 0.9 0.8 0.1 1.6-0.4 2.2-0.8 0.7-0.4 1.3-0.8 1.9-1.3 0.8-0.8 1.3-1.7 1.6-2.8q1.2 0 2.4 0.1-1.1 1.5-2.1 3.1c-1.5 2.4-3 4.8-5.3 6.6-0.7 0.5-0.1 1.7 0.7 1.2 2.3-1.5 3.9-4 5.3-6.3 0.7-1.2 1.3-2.5 2-3.7q0.2-0.4 0.5-0.9 2.8 0 5.5 0-0.4 0.3-0.7 0.7c-1.1 1.2-2 2.6-2.5 4.1zm-37.8 10.5q-0.3 0.4-0.7 0.8c-0.5 0.5-1.3 0.8-2 0.9-0.6 0-0.6 0.8 0 0.8 1.2-0.1 2.4-0.7 3.2-1.6-0.8 2.1-2.7 3.7-5.1 4-3.3 0.5-6.3-1.8-6.8-5.1-0.4-3 1.7-5.6 4.4-6.7-1.1 0.9-1.8 2.1-2 3.4-0.5 2.4 0.7 4.9 2.7 6.1 0.5 0.3 0.9-0.4 0.4-0.7-1.7-1.1-2.7-3.3-2.3-5.3 0.3-1.2 0.9-2.1 1.8-2.8-0.7 1.6-0.6 3.7 0.6 5 1.4 1.7 3.8 2 5.8 1.2zm31.1-15.4c-0.3 0.7-0.8 1.4-1.4 1.9q-0.7 0.7-1.6 1.1-0.2 0.2-0.6 0.3c0.3-0.7 0.3-1.5 0-2.2q-0.3-0.6-0.7-1.1 2.1 0 4.3 0zm-12.2 7.9c-0.5-1.1-1.3-1.8-2.3-2.2 2.2 0.4 4.2 2.1 4.6 4.3 0.1 0.3 0.6 0.2 0.5-0.2-0.5-3-3.5-4.9-6.4-4.7 1.7-0.8 3.9-0.7 5.4 0.4 1.8 1.3 2.7 4 1.5 5.9-0.9 1.4-2.8 2.1-4.4 1.6 1.3-1.3 1.8-3.4 1.1-5.1zm45.4 2c-0.6 3.1-3.1 6-6.4 6.2-1.6 0.2-3.2-0.3-4.4-1.4q-0.5-0.6-0.9-1.3 0.2-0.5 0.3-1c0-0.9-0.1-1.7-0.4-2.5 0.8-1.4 2.6-2.4 4.1-1.6 0.7 0.3 1.4 1.1 1.2 1.9 0 0.6-0.7 1.2-1.3 1-1.2-0.2-1.7 1.6-0.5 1.9 2.2 0.5 4.2-1.7 3.6-3.9-0.6-2.1-2.9-3-4.9-2.6-1.2 0.2-2.3 0.9-3 1.8q-0.6-0.8-1.5-1.3c-2.1-1.1-4.9-0.7-6.1 1.4-1.2 2.3 0.7 5.2 3.3 4.6 1.2-0.3 0.7-2.1-0.5-1.9-0.5 0.2-1.1-0.3-1.3-0.8-0.2-0.6 0.2-1.4 0.7-1.8 1.2-1 3-0.6 4 0.5q0.4 0.3 0.6 0.8-0.2 0.4-0.3 0.8c-0.1 0.9-0.1 1.9 0.2 2.8q0 0.1-0.1 0.2c-0.8 1.4-2.4 2.2-4 2.4-3.2 0.4-6.3-1.9-7.2-5-1.1-3.2-0.1-6.7 2-9.2q0.9-1 2-1.8 1.5 0 3 0-0.4 0.3-0.7 0.7c-0.9 1.1-1.7 2.5-1.8 4-0.1 0.3 0.3 0.6 0.6 0.7 0.3 0 0.7-0.2 0.7-0.5 0.1-0.7 0.3-1.3 0.5-1.9q0.3-0.9 0.9-1.6 0.5-0.8 1.2-1.4 1.9 0 3.8 0 1.9 0 3.8 0 0.7 0.6 1.2 1.4 0.6 0.7 0.9 1.6c0.3 0.6 0.4 1.2 0.5 1.9 0.2 0.7 1.5 0.6 1.4-0.2-0.2-1.5-1-2.9-1.9-4q-0.3-0.4-0.7-0.7 1.5 0 3 0c3 2.2 5 5.8 4.4 9.8zm50.6 4.1c0.2 3.3-2.3 6.2-5.7 6.4-2.9 0.1-5.3-1.6-6.3-4.2 0.8 1 2 1.6 3.3 1.7 0.5 0 0.5-0.8 0-0.8-0.8-0.1-1.5-0.4-2.1-0.9-0.3-0.3-0.5-0.5-0.7-0.9 2 0.8 4.4 0.6 5.8-1.1 1.2-1.3 1.4-3.4 0.6-5 0.9 0.7 1.5 1.6 1.8 2.8 0.4 2-0.6 4.2-2.3 5.3-0.5 0.3 0 1 0.4 0.7 2-1.3 3.2-3.7 2.8-6.1-0.3-1.3-1-2.5-2-3.4 2.2 1 4.2 2.9 4.4 5.5zm-38.3-14q-0.4 0.5-0.7 1.1c-0.3 0.7-0.2 1.5 0 2.2q-0.3-0.1-0.6-0.3-0.8-0.4-1.6-1.1c-0.6-0.5-1-1.2-1.3-1.9q2.1 0 4.2 0zm5.6 10c0.5-2.2 2.5-3.9 4.6-4.3-0.9 0.4-1.8 1.1-2.2 2.2-0.8 1.7-0.3 3.8 1 5.1-1.3 0.4-2.9 0-3.9-1-1.4-1.5-1.2-3.9-0.1-5.4 1.3-1.8 3.7-2.3 5.7-1.8q0.4 0.1 0.8 0.3c-2.9-0.2-5.9 1.7-6.4 4.7-0.1 0.4 0.4 0.5 0.5 0.2zm-88.7 24.8c0.6 0 0.6-1 0-1-0.7 0-0.7 1 0 1zm7.5-81.7q0.6 0.1 1.2 0c14.5 0.2 31.5 0.3 49.5 0.3 17.9 0 34.7-0.1 49.3-0.2q1 0 2-0.1c28.9-0.3 48.1-1 48.1-1.7 0-0.4-5.7-0.8-15.5-1.1-0.1-0.2-0.2-0.5-0.6-0.5-4.4 0.1-8.8-1.1-12.2-4.1-1.5-1.3-2.8-2.8-3.7-4.6q-0.2-0.3-0.3-0.7c0.5 0.8 1.1 1.5 1.7 2.1 1.9 1.7 4.3 2.8 6.8 3 4.7 0.3 9.4-3 10.3-7.6 0.5-2.2 0.1-4.7-1.2-6.5-1.3-1.7-3.5-2.6-5.6-2.4-2.3 0.2-4.2 1.6-4.6 3.9-0.4 2 0.4 4.3 2.4 5.1 0.4 0.2 0.8-0.3 0.4-0.6-1.5-0.8-2-2.7-1.6-4.3 0.4-1.8 1.9-2.9 3.7-3 4.6-0.2 6.7 5 5 8.8-1.8 4.1-6.5 5.8-10.7 4.7-4-1.2-6.2-4.8-8.2-8.3-0.3-1.1-0.7-2.1-1.3-3.1-1.4-2.3-3.7-4.3-6.3-5.2-1.2-0.5-2.5-0.8-4-0.6-0.7 0-0.7 1.2 0 1.2 1.5 0 2.9 0.3 4.2 0.9 0.9 0.5 1.7 1.2 2.4 1.9 1.5 1.5 2.6 3.3 3.7 5.2 0.4 2 0.4 4-0.1 6-1 3.4-3.2 6.3-6.3 8.1q-0.1 0-0.2 0.1-7.1-0.1-15-0.2c-1.5-1-2.7-2.4-3.1-4.3-0.2-0.8-1.4-0.5-1.2 0.3 0.3 1.6 1 2.9 2.1 4-8.7-0.1-18-0.2-27.7-0.2q0.1 0 0.1-0.1 0.2-0.1 0.2-0.3 0.8-0.6 1.4-1.4c0.3-0.5 0.5-1.1 0.6-1.7 0.7 0.8 1.5 1.5 2.4 2.1 3.2 1.8 7 1 10-0.8 3.3-2 5.6-5.1 8.3-7.8 2.4-2.4 5.3-4.4 8.6-5.2q0.1 0 0.3 0c0.8 0 1.4 0.2 2.1 0.6 0.6 0.4 1.2 1.1 1.6 1.7 0.9 1.3 1.2 2.7 0.8 4.1-0.3 1.3-1.2 2.5-2.4 3.1-0.6 0.3-1.3 0.5-2 0.6-0.6 0-1.1-0.1-1.7-0.2-0.3-0.2-0.7 0-0.6 0.4q0 0.1 0.1 0.2 0 0 0 0c1.5 2.5 4.4 4.1 7.3 3.9 3.2-0.3 6.1-2.4 6.8-5.6 0.6-3-0.6-6.3-3-8.2-2.5-2-6-2.6-9.2-2-2.1 0.4-4 1.3-5.8 2.4q0.6-0.8 1.1-1.8c1.8-3.4 2-7.3 0.5-10.9-0.9-2-2.3-3.6-4-4.9-0.3-0.2-0.7 0.1-0.6 0.5 1.8 6.3 1.6 13.3-0.2 19.6q0 0.1 0 0.1c-1.3 1.2-2.5 2.5-3.7 3.8 0.7-1.5 1-3 1.1-4.6 0.1-4.5-2.5-9-6.7-10.8-2.4-1-4.9-1.1-7.4-0.4-0.3 0.1-0.3 0.6 0 0.7 3.6 0.8 6.7 3 8.6 6 2.2 3.3 2.8 7.4 1.7 11.2q0 0.2 0 0.3-0.2 0.4-0.5 0.7-0.6 0.5-1.2 0.9c-2.9 1.8-6.6 2.8-9.6 0.7-2.6-1.7-3.9-5-3.1-8 0.8-3 3.5-5.2 6.7-4.6 1.3 0.3 2.6 1.2 3.1 2.5 0.5 1.1 0.5 2.5-0.1 3.6q-0.4 0.9-1.2 1.4c-0.9 0.6-0.1 1.9 0.8 1.4 2.4-1.6 2.9-4.9 1.6-7.4-1.4-2.7-5-3.6-7.8-2.6-3 1.1-4.8 4.3-4.8 7.5 0 1.6 0.4 3.2 1.3 4.6-0.1 0.7-0.3 1.5-0.7 2.2-0.7 1-1.9 1.5-3.1 1.8-0.8-0.1-1.5-0.4-2-0.6-1.2-0.5-2.2-1.3-3-2.3-1.8-2.2-2.2-5.5-1-8.1 0.2-0.4-0.4-0.7-0.6-0.3-1.5 3-1.4 6.7 0.8 9.4q0.9 1.1 2 1.8c-1.5-0.4-2.9-1.2-3.9-2.4-1.1-1.2-1.8-2.8-2-4.4q0.1-1.1 0-2.2 0-0.5 0.2-1.1c0.6-2.5 3-5.3 6-4.6 1.4 0.3 2.6 1.5 2.7 3 0.1 1.4-1.1 2.6-2.5 2.7-1 0-1 1.5 0 1.5 1.7 0.1 3.1-1.1 3.7-2.6 0.6-1.6-0.1-3.4-1.3-4.5-2.7-2.5-6.9-1-8.8 1.8q-0.4 0.7-0.7 1.4 0-0.1-0.1-0.2c-1.4-3.1-5.1-5.4-8.4-3.7-1.6 0.8-2.7 2.7-2.4 4.5 0.3 1.8 1.9 3.4 3.8 3.3 1 0 1-1.5 0-1.5-1.2-0.1-2.2-1-2.4-2.2-0.2-1.3 0.6-2.6 1.7-3.2 2.8-1.5 5.7 0.9 6.7 3.4q0.3 0.9 0.5 1.9-0.2 1.2 0 2.3c-0.2 1.3-0.7 2.6-1.5 3.7-1 1.5-2.7 2.6-4.4 3.1q1.1-0.8 1.9-1.8c2.2-2.7 2.4-6.4 0.8-9.4-0.2-0.4-0.8-0.1-0.6 0.3 1.2 2.6 0.8 5.9-1 8.1-0.7 0.9-1.7 1.7-2.9 2.2-0.5 0.3-1.3 0.6-2 0.7-1.1-0.2-2.1-0.7-2.8-1.4-0.7-0.7-1-1.6-1-2.6q0.6-1.1 0.9-2.3c0.9-3 0-6.7-2.5-8.7-2.4-1.9-6-2.1-8.4-0.2-2.3 1.8-2.8 5.3-1.2 7.6q0.6 0.9 1.5 1.5c0.8 0.5 1.6-0.8 0.7-1.4-2.2-1.4-2.1-5-0.1-6.6 2.5-1.9 6.1-0.9 7.7 1.6 1.7 2.6 1.4 6.1-0.5 8.5-0.9 1.2-2.2 2.2-3.7 2.6-1.7 0.4-3.5 0.2-5.1-0.5-1.3-0.5-2.5-1.2-3.5-2q-0.4-0.4-0.7-0.8 0.1-0.1 0-0.3c-1-3.8-0.4-7.9 1.7-11.2 2-3 5.1-5.2 8.6-6 0.3-0.1 0.3-0.6 0-0.7-4.4-1.2-9.1 0.2-11.8 3.9-2.5 3.5-2.9 8.1-1.2 11.9q-0.8-0.9-1.7-1.8-0.9-1.1-2-2c-1.8-6.3-2-13.4-0.2-19.7 0.1-0.4-0.3-0.7-0.6-0.5-3 2.3-4.9 5.8-5 9.6-0.1 3 1 5.7 2.7 8.1q-1.6-1.1-3.4-1.8c-3.1-1.2-6.6-1.3-9.7 0-2.8 1.3-4.8 4.1-5.1 7.2-0.3 3.3 1.6 6.2 4.6 7.4 2.9 1.1 6.2 0.3 8.3-1.8q0.8-0.7 1.3-1.6 0.1-0.1 0.1-0.2c0.1-0.4-0.3-0.6-0.6-0.4-0.5 0.1-1.1 0.2-1.7 0.2-0.7-0.1-1.4-0.3-2-0.6-1.2-0.6-2.1-1.7-2.4-3.1-0.4-1.4 0-2.8 0.8-4 0.4-0.7 1-1.4 1.6-1.8 0.7-0.4 1.4-0.6 2.1-0.5q0.2 0 0.3-0.1c2.4 0.6 4.7 1.8 6.6 3.4 3 2.4 5.2 5.6 8.1 8 2.7 2.3 6.4 4.1 10 3.2 1.9-0.4 3.4-1.5 4.6-2.9q0.1 0.5 0.3 1c0.4 0.9 1 1.6 1.7 2.1q0.1 0.2 0.2 0.3 0.1 0.1 0.1 0.1c-9.7 0.1-19 0.1-27.7 0.2 1.1-1.1 1.9-2.4 2.1-3.9 0.2-0.8-1-1.2-1.2-0.4-0.4 1.9-1.6 3.3-3.1 4.3q-7.9 0.1-14.9 0.2c-2.8-1.6-5-3.9-6.1-6.9-0.9-2.4-1.1-4.9-0.5-7.3 0.8-1.6 1.7-3.1 2.9-4.5 0.8-1 1.9-1.9 3-2.6 1.3-0.6 2.8-0.9 4.3-0.9 0.8 0 0.7-1.2 0-1.2-1.4-0.2-2.8 0.1-4 0.6-2.1 0.8-4.1 2.3-5.5 4.1-1 1.3-1.7 2.7-2.1 4.2-1.7 3-3.4 6.1-6.6 7.6-3.9 2-9 1-11.5-2.7-1.2-1.7-1.7-3.8-1.1-5.9 0.4-2 1.9-3.6 3.9-4.1 1.9-0.4 4.3 0.3 5 2.3 0.7 1.7 0.2 4-1.4 4.9-0.4 0.3-0.1 0.8 0.3 0.6 1.7-0.7 2.7-2.6 2.5-4.4-0.1-2-1.3-3.6-3.2-4.3-2-0.7-4.3-0.3-5.9 1-1.8 1.4-2.6 3.7-2.6 5.9 0 4.7 4 8.6 8.6 9.2 2.5 0.4 5.1-0.3 7.2-1.7 1.3-0.9 2.3-2 3.2-3.2q-0.1 0.3-0.2 0.5c-0.9 1.8-2.2 3.4-3.8 4.8-3.3 2.9-7.8 4.1-12.2 4-0.3 0-0.5 0.3-0.6 0.5-9.8 0.4-15.5 0.7-15.5 1.1 0 0.7 19.5 1.4 48.7 1.7zm115.8-9.8q0.6-1.6 0.8-3.4 0 0.2 0.1 0.5 0.4 1.3 1.1 2.5c1 1.8 2.3 3.3 3.9 4.5 1.6 1.2 3.5 2.1 5.4 2.7-4.8-0.1-10.2-0.2-16.1-0.3 2.2-1.7 3.9-3.9 4.8-6.5zm-13.2 0.8c1.6-2.1 1.6-5 0.4-7.2-0.6-1.1-1.5-2-2.5-2.6 1.6 0.5 3.1 1.4 4.2 2.7 1.9 2.6 2 6.3-0.4 8.6-2.4 2.2-6.2 2.1-8.9 0.3q-0.4-0.3-0.8-0.7c0.8 0.1 1.7 0 2.4-0.2 1.3-0.4 2.3-1.2 3.1-2.3 0.7-1.1 1.1-2.4 0.9-3.8-0.1-1.4-0.7-2.7-1.7-3.8-0.3-0.4-0.7-0.8-1.2-1.2 1.7 0.7 3.1 1.8 4 3.4 1 2 0.9 4.4-0.4 6.2-0.4 0.6 0.5 1.1 0.9 0.6zm-14-16c0-3.1-0.5-6-1.2-9 2.3 2.2 3.6 5.4 3.5 8.5 0 3.2-1.5 6-3.4 8.5 0.7-2.6 1-5.3 1.1-8zm-9.6 3.9c-1.9-2.8-4.7-4.9-8-5.8 3.6-0.5 7.5 1.3 9.5 4.3 2.2 3.3 2.4 7.6 0.7 11.2 0.4-3.4-0.3-6.9-2.2-9.7zm-29.8 14.9q1-1.1 1.5-2.5 0.3 0.8 0.7 1.4c1 1.6 2.5 2.8 4.1 3.6q-2.4 0-4.8 0-2.4 0-4.8 0c1.3-0.6 2.4-1.4 3.3-2.5zm-46.7-12.2c-1 1-1.8 2.3-2.1 3.7-0.4 2.7 1 5.4 3.5 6.4q1.1 0.4 2.2 0.4 0.4 0 0.7-0.1c-1.9 1.9-4.9 2.7-7.5 1.8-1.5-0.5-2.9-1.7-3.6-3.3-0.6-1.4-0.5-3.1 0-4.5 0.8-2.5 2.9-4.1 5.2-4.8-1 0.7-1.9 1.5-2.5 2.6-1.2 2.2-1.2 5.1 0.4 7.2 0.4 0.5 1.3 0 0.9-0.6-1.3-1.8-1.4-4.2-0.3-6.2 0.8-1.6 2.3-2.7 4-3.4q-0.5 0.4-0.9 0.8zm9.7-1.2c-1.8-3.2-2.2-6.8-0.9-10.3 0.6-1.5 1.5-2.9 2.7-4.1-0.7 3-1.1 5.9-1.1 9 0 2.7 0.3 5.4 1 8q-0.9-1.2-1.7-2.6zm8 8.2c-0.7-1.4-1.1-2.9-1.2-4.6-0.1-4.2 2.1-8.2 6-10 1.6-0.8 3.5-1.1 5.4-0.9-3.2 0.9-6.1 3-8 5.8-1.9 2.8-2.6 6.3-2.2 9.7zm-40.5 5.7c1.6-1.2 2.9-2.7 3.9-4.4q0.7-1.3 1.1-2.6 0.1-0.3 0.1-0.5 0.1 1 0.4 2c0.8 3.3 2.8 6 5.3 7.9-5.9 0.1-11.4 0.2-16.2 0.3 2-0.6 3.8-1.5 5.4-2.7zm136 58.1q0 0 0 0 0 0 0 0zm1.6 0q0 0.1-0.1 0.2 0 0 0 0 0.1-0.1 0.1-0.2zm-0.2 0.3q0 0 0 0.1 0-0.1 0-0.1zm-0.2 0.2q0 0 0 0 0 0 0 0 0 0 0 0zm-125.9 27.9c0.5 0 0.5-0.8 0-0.8-0.5 0-0.5 0.8 0 0.8z"/>
	</g>
</svg>